<?xml version="1.0" encoding="iso-8859-1"?>
<!-- Uploaded to: SVG Repo, www.svgrepo.com, Generator: SVG Repo Mixer Tools -->
<svg version="1.1" id="Layer_1" xmlns="http://www.w3.org/2000/svg" xmlns:xlink="http://www.w3.org/1999/xlink" 
	 viewBox="0 0 512 512" xml:space="preserve">
<g>
	<path style="fill:#5B5D6E;" d="M79.448,88.276H17.655c-4.875,0-8.828,3.953-8.828,8.828v70.621c0,4.875,3.953,8.828,8.828,8.828
		H35.31c4.875,0,8.828-3.953,8.828-8.828v-61.793h35.31V88.276z"/>
	<path style="fill:#5B5D6E;" d="M432.552,88.276h61.793c4.875,0,8.828,3.953,8.828,8.828v70.621c0,4.875-3.953,8.828-8.828,8.828
		H476.69c-4.875,0-8.828-3.953-8.828-8.828v-61.793h-35.31V88.276z"/>
</g>
<rect x="70.621" y="88.276" style="fill:#464655;" width="370.759" height="97.103"/>
<path style="fill:#4B5F91;" d="M450.207,185.379V88.276h-17.655v97.103H264.828V88.276h-17.655v97.103H79.448V88.276H61.793v97.103
	c-9.751,0-17.655,7.904-17.655,17.655v70.621h423.724v-70.621C467.862,193.283,459.958,185.379,450.207,185.379z"/>
<g>
	<path style="fill:#464655;" d="M88.276,494.345H44.138c-4.875,0-8.828-3.953-8.828-8.828v-61.793h61.793v61.793
		C97.103,490.392,93.151,494.345,88.276,494.345z"/>
	<path style="fill:#464655;" d="M467.862,494.345h-44.138c-4.875,0-8.828-3.953-8.828-8.828v-61.793h61.793v61.793
		C476.69,490.392,472.737,494.345,467.862,494.345z"/>
</g>
<path style="fill:#556EA0;" d="M423.724,247.172v-8.828c0-19.501-15.809-35.31-35.31-35.31H123.586
	c-19.501,0-35.31,15.809-35.31,35.31v8.828c0,9.751-7.904,17.655-17.655,17.655H35.31c-9.751,0-17.655,7.904-17.655,17.655v105.931
	h476.69V282.483c0-9.751-7.904-17.655-17.655-17.655h-35.31C431.628,264.828,423.724,256.924,423.724,247.172z"/>
<path style="fill:#FFFFFF;" d="M79.448,344.276H52.966c-4.875,0-8.828-3.953-8.828-8.828v-35.31c0-4.875,3.953-8.828,8.828-8.828
	h26.483c4.875,0,8.828,3.953,8.828,8.828v35.31C88.276,340.323,84.323,344.276,79.448,344.276z"/>
<path style="fill:#FFC36E;" d="M44.138,326.621v8.828c0,4.875,3.953,8.828,8.828,8.828h26.483c4.875,0,8.828-3.953,8.828-8.828
	v-8.828H44.138z"/>
<path style="fill:#FFFFFF;" d="M459.034,344.276h-26.483c-4.875,0-8.828-3.953-8.828-8.828v-35.31c0-4.875,3.953-8.828,8.828-8.828
	h26.483c4.875,0,8.828,3.953,8.828,8.828v35.31C467.862,340.323,463.91,344.276,459.034,344.276z"/>
<path style="fill:#FFC36E;" d="M423.724,326.621v8.828c0,4.875,3.953,8.828,8.828,8.828h26.483c4.875,0,8.828-3.953,8.828-8.828
	v-8.828H423.724z"/>
<path style="fill:#464655;" d="M388.414,353.103H123.586c-4.875,0-8.828-3.953-8.828-8.828V238.345c0-4.875,3.953-8.828,8.828-8.828
	h264.828c4.875,0,8.828,3.953,8.828,8.828v105.931C397.241,349.151,393.289,353.103,388.414,353.103z"/>
<g>
	<rect x="114.759" y="247.172" style="fill:#5B5D6E;" width="282.483" height="17.655"/>
	<rect x="114.759" y="317.793" style="fill:#5B5D6E;" width="282.483" height="17.655"/>
	<rect x="114.759" y="282.483" style="fill:#5B5D6E;" width="282.483" height="17.655"/>
</g>
<path style="fill:#556EA0;" d="M450.207,88.276H61.793c-9.751,0-17.655-7.904-17.655-17.655v-8.828
	c0-24.376,19.762-44.138,44.138-44.138h335.448c24.376,0,44.138,19.762,44.138,44.138v8.828
	C467.862,80.372,459.958,88.276,450.207,88.276z"/>
<path style="fill:#4B5F91;" d="M423.724,35.31H88.276c-14.626,0-26.483,11.857-26.483,26.483v8.828h388.414v-8.828
	C450.207,47.167,438.35,35.31,423.724,35.31z"/>
<circle style="fill:#5A96FF;" cx="97.103" cy="52.966" r="17.655"/>
<circle style="fill:#FF6464;" cx="132.414" cy="52.966" r="17.655"/>
<circle style="fill:#5A96FF;" cx="414.897" cy="52.966" r="17.655"/>
<circle style="fill:#FF6464;" cx="379.586" cy="52.966" r="17.655"/>
<path style="fill:#C7CFE2;" d="M494.345,441.379H17.655C7.904,441.379,0,433.475,0,423.724v-35.31
	c0-9.751,7.904-17.655,17.655-17.655h476.69c9.751,0,17.655,7.904,17.655,17.655v35.31C512,433.475,504.096,441.379,494.345,441.379
	z"/>
<g>
	<path style="fill:#AFB9D2;" d="M175.448,423.724h64c4.266,0,7.724-3.458,7.724-7.724v-19.862c0-4.266-3.458-7.724-7.724-7.724h-64
		c-4.266,0-7.724,3.458-7.724,7.724V416C167.724,420.266,171.182,423.724,175.448,423.724z"/>
	<path style="fill:#AFB9D2;" d="M272.552,423.724h64c4.266,0,7.724-3.458,7.724-7.724v-19.862c0-4.266-3.458-7.724-7.724-7.724h-64
		c-4.266,0-7.724,3.458-7.724,7.724V416C264.828,420.266,268.286,423.724,272.552,423.724z"/>
</g>
</svg>